# xmcd CD database file
#
# Track frame offsets:
#	150
#	22585
#	45663
#	65103
#	88659
#	111378
#	132553
#	155145
#	176652
#	197385
#	219611
#	240073
#	261905
#	286433
#	307522
#	329875
#
# Disc length: 4667 seconds
#
# Revision: 1
# Processed by: cddbd v1.5.2PL0 Copyright (c) Steve Scherf et al.
# Submitted via: CDex 1.70beta2
#
DISCID=e6123910
DTITLE=Frankie Ruiz - 32 Exitos
DYEAR=1998
DGENRE=Salsa
TTITLE0=La Cura
TTITLE1=¿Cómo lo hacen?
TTITLE2=Que se mueran de envidia
TTITLE3=Lo dudo
TTITLE4=Viajera
TTITLE5=Para darte fuego
TTITLE6=Imposible amor
TTITLE7=Te estoy estudiando
TTITLE8=Y no puedo
TTITLE9=Si no te hubieras ido
TTITLE10=Quiero llenarte
TTITLE11=Me acostumbre
TTITLE12=El camionero
TTITLE13=Dile a el
TTITLE14=Tu me vuelves loco
TTITLE15=Si esa mujer me dice que si
EXTD=YEAR: 1998
EXTT0=
EXTT1=
EXTT2=
EXTT3=
EXTT4=
EXTT5=
EXTT6=
EXTT7=
EXTT8=
EXTT9=
EXTT10=
EXTT11=
EXTT12=
EXTT13=
EXTT14=
EXTT15=
PLAYORDER=
